<svg data-v-2cb57da0="" version="1.0" xmlns="http://www.w3.org/2000/svg" xmlns:xlink="http://www.w3.org/1999/xlink" width="100%" height="100%" viewBox="0 0 340.000000 250.000000" preserveAspectRatio="xMidYMid meet" color-interpolation-filters="sRGB" style="margin: auto;"><rect data-v-2cb57da0="" x="0" y="0" width="100%" height="100%" fill="#fff" fill-opacity="1" class="background"></rect> <rect data-v-2cb57da0="" x="0" y="0" width="100%" height="100%" fill="url(#watermark)" fill-opacity="1" class="watermarklayer"></rect> <g data-v-2cb57da0="" fill="#333" class="icon-text-wrapper icon-svg-group iconsvg" transform="translate(114.39500045776367,68.4246711730957)"><g class="iconsvg-imagesvg" transform="translate(25.604999542236328,0)"><g><rect fill="#333" fill-opacity="0" stroke-width="2" x="0" y="0" width="60" height="59.06848991405534" class="image-rect"></rect> <svg x="0" y="0" width="60" height="59.06848991405534" filtersec="colorsb9447164564" class="image-svg-svg primary" style="overflow: visible;"><svg xmlns="http://www.w3.org/2000/svg" viewBox="0.4385022521018982 -0.000009216904800268821 101.5615005493164 99.98497772216797"><path d="M69.3 59.41l-9.89 9.89L51 77.73 30.46 98.26A6 6 0 0 1 22 89.83L42.56 69.3 51 60.88l9.9-9.9zM102 24.28a6 6 0 0 1-1.75 4.21L77.72 51l-8.42-8.44 22.5-22.5a6 6 0 0 1 10.2 4.22z" fill="#0059cc"></path><path d="M83.64 6a5.94 5.94 0 0 1-1.74 4.21L41.08 51l-8.42-8.42 9.9-9.89L51 24.24 73.48 1.75A6 6 0 0 1 83.64 6zM32.66 59.41L12.13 79.93a6 6 0 0 1-8.42-8.42L24.24 51z" fill="#00dac7"></path><path d="M51 24.24l-8.42 8.43-22.5-22.5A6 6 0 0 1 24.28 0a5.89 5.89 0 0 1 4.2 1.75zM98.25 79.93a5.94 5.94 0 0 1-8.42 0L51 41.09l8.42-8.42 9.9 9.89 8.4 8.44 20.53 20.51a6 6 0 0 1 0 8.42z" fill="#00baec"></path><path d="M51 60.88l-8.44 8.42L1.74 28.49a6 6 0 0 1 8.43-8.43l22.49 22.5L41.08 51zM79.93 98.26a6 6 0 0 1-8.42 0L51 77.73l8.42-8.43 20.51 20.53a6 6 0 0 1 0 8.43z" fill="#00abd8"></path></svg></svg> <!----></g></g> <g transform="translate(0,66.0684928894043)"><g data-gra="path-name" fill-rule="" class="tp-name iconsvg-namesvg"><g transform="scale(1)"><g><path d="M19.37-33.87C9.1-33.87 1.5-26.91 1.5-16.45 1.5-6.7 10.01 0.13 19.37 0.13 29.25 0.13 37.38-6.76 37.38-16.9 37.38-27.04 29.19-33.87 19.37-33.87ZM19.82-8C14.69-8 14.11-12.8 14.11-16.84 14.11-20.61 14.56-25.61 19.44-25.61 24.38-25.61 24.77-20.61 24.77-16.84 24.77-13.39 24.44-8 19.82-8ZM55.31 0.33C55.31-0.52 55.31-1.89 56.48-1.89 59.02-1.89 61.56 0.2 64.42 0.2 73.45 0.2 78.33-7.08 78.33-15.54 78.33-24.18 73.78-33.54 64.03-33.54 60.52-33.54 55.9-30.16 55.31-30.16L55.19-30.16C54.8-31.85 54.8-32.76 52.84-32.76 51.48-32.76 50.12-32.56 48.75-32.56 47.58-32.56 46.54-32.11 45.76-31.27 42.84-28.14 42.45-20.54 42.45-16.45 42.45-11.83 42.12 8.64 45.37 11.83 46.28 12.68 48.62 13.2 49.86 13.2 50.96 13.2 52.59 13.33 53.56 12.74 55.25 11.7 55.31 9.75 55.31 7.93ZM54.8-16.57C54.8-21.06 55.45-24.77 60.78-24.77 64.55-24.77 66.04-20.35 66.04-17.23 66.04-13.46 65.2-8.45 60.45-8.45 57.98-8.45 54.8-10.53 54.8-13.2ZM112.71-11.12C112.71-23.14 95.94-19.76 95.94-23.6 95.94-24.96 97.31-25.61 98.54-25.61 100.69-25.61 102.7-25.48 104.78-25.09 106.41-24.77 108.1-24.57 109.79-24.57 111.22-24.57 111.48-24.89 111.48-26.32 111.48-32.89 107.25-33.87 101.66-33.87 98.8-33.87 96.07-33.87 93.28-33.28 88.08-32.18 83.01-28.93 83.01-23.01 83.01-11.7 99.84-14.3 99.84-10.34 99.84-8.78 97.7-8.38 96.53-8.38 92.56-8.38 88.73-9.95 84.76-9.95 83.66-9.95 83.46-9.04 83.46-8.13 83.46-0.13 91.07 0.13 97.18 0.13 104 0.13 112.71-3.06 112.71-11.12Z" transform="translate(-1.5, 33.869998931884766)"></path></g> <!----> <!----> <!----> <!----> <!----> <!----> <!----></g></g> <!----></g></g><defs v-gra="od"></defs></svg>